<svg xmlns="http://www.w3.org/2000/svg" height="59" preserveAspectRatio="none" style="width:342px;height:59px;background:#fff" width="342"><rect fill="#F1F1F1" height="46.297" rx="2.5" ry="2.5" style="stroke:#181818;stroke-width:.5" width="106" x="7" y="7"/><path fill="#F1F1F1" style="stroke:#181818;stroke-width:.5" d="M93 12h15v10H93z"/><path fill="#F1F1F1" style="stroke:#181818;stroke-width:.5" d="M91 14h4v2h-4zM91 18h4v2h-4z"/><text font-family="sans-serif" font-size="14" textLength="66" x="22" y="39.995">CSS-in-JS</text><g><rect fill="#F1F1F1" height="46.297" rx="2.5" ry="2.5" style="stroke:#181818;stroke-width:.5" width="132" x="204" y="7"/><path fill="#F1F1F1" style="stroke:#181818;stroke-width:.5" d="M316 12h15v10h-15z"/><path fill="#F1F1F1" style="stroke:#181818;stroke-width:.5" d="M314 14h4v2h-4zM314 18h4v2h-4z"/><text font-family="sans-serif" font-size="14" textLength="92" x="219" y="39.995">PostCSS AST</text></g><g><path d="M113.287 45.469c8.372 1.88 16.98 3.499 25.213 4.531 19.478 2.442 40.52 1.057 59.939-1.883" fill="none" style="stroke:#181818;stroke-width:1"/><path fill="#181818" style="stroke:#181818;stroke-width:1" d="m203.871 47.249-9.518-2.53 4.581 3.319-3.319 4.58 8.256-5.369z"/><text font-family="sans-serif" font-size="13" textLength="38" x="139.5" y="46.067">toAST</text></g><g><path d="M203.626 30h-85.142" fill="none" style="stroke:#181818;stroke-width:1"/><path fill="#181818" style="stroke:#181818;stroke-width:1" d="m113.263 30 9 4-4-4 4-4-9 4z"/><text font-family="sans-serif" font-size="13" textLength="54" x="131.5" y="23.067">toObject</text></g></svg>